<svg width="25" height="25" viewBox="0 0 25 25" fill="none" xmlns="http://www.w3.org/2000/svg">
<path d="M21.6262 0C21.7279 0.017652 21.9722 0.0421688 22.2059 0.10199C23.9566 0.553097 25.3672 2.65957 24.9146 4.24139C24.7728 4.73565 24.4786 5.24364 24.1179 5.60943C20.5099 9.27026 16.8754 12.9046 13.2381 16.537C13.0631 16.7116 12.8148 16.8469 12.5763 16.9146C10.9526 17.3814 9.32308 17.8276 7.69355 18.2738C6.9956 18.465 6.62707 18.0875 6.81964 17.3794C7.25953 15.7603 7.69453 14.1393 8.15689 12.5271C8.23412 12.2593 8.39443 11.9838 8.59091 11.7857C12.1755 8.17093 15.7738 4.56894 19.3642 0.960075C19.9537 0.367751 20.6369 0.00980669 21.6262 0ZM12.6476 15.1974C15.6438 12.1917 18.6545 9.17023 21.634 6.18115C20.723 5.26815 19.7709 4.31396 18.853 3.39409C15.8696 6.3871 12.8578 9.40952 9.86756 12.4084C10.7786 13.3214 11.7317 14.2776 12.6476 15.1974ZM19.8129 2.3183C20.7933 3.29995 21.7523 4.26199 22.7152 5.22696C23.6213 4.46793 23.9771 3.86383 23.7122 3.17344C23.3681 2.27809 22.7269 1.56417 21.7885 1.30919C20.8559 1.0552 20.3065 1.75442 19.8129 2.3183ZM11.2859 15.9761C10.5587 15.2474 9.81575 14.5031 9.10216 13.7872C8.85191 14.6983 8.57527 15.7093 8.27224 16.8136C9.3788 16.5066 10.3944 16.2242 11.2859 15.9761Z" fill="#FE9128"/>
<path d="M11.8285 24.9972C9.04253 24.9972 6.25659 24.9982 3.47064 24.9972C1.28197 24.9953 0.000434455 23.7175 0.000434455 21.5394C0.000434455 16.2928 -0.000543069 11.0463 0.000434455 5.80066C0.000434455 3.75302 1.27904 2.45265 3.30544 2.44579C4.99949 2.4399 6.69452 2.44383 8.38857 2.44481C8.97019 2.44579 9.26834 2.65075 9.27811 3.04988C9.28789 3.45882 8.9614 3.69418 8.36315 3.69516C6.73362 3.6981 5.10311 3.73635 3.47651 3.68437C1.96526 3.63632 1.23505 4.62974 1.24482 5.89676C1.2849 11.11 1.28783 16.3242 1.24482 21.5374C1.23211 22.9986 2.22919 23.7547 3.44327 23.7479C9.06404 23.7165 14.6848 23.7351 20.3046 23.7332C21.7318 23.7332 22.4766 22.9879 22.4786 21.562C22.4806 19.8782 22.4776 18.1953 22.4796 16.5115C22.4806 15.9555 22.6809 15.6927 23.0935 15.6897C23.4894 15.6868 23.7318 15.982 23.7337 16.5037C23.7386 18.2365 23.7464 19.9684 23.7328 21.7012C23.7171 23.6586 22.3857 24.9874 20.4307 24.9943C17.5636 25.0051 14.6965 24.9972 11.8285 24.9972Z" fill="#FE9128"/>
</svg>
