<svg width="23" height="28" viewBox="0 0 23 28" fill="none" xmlns="http://www.w3.org/2000/svg">
<path d="M1.88348 8.36231C0.825946 7.99278 0.15669 7.29416 0.0195201 6.19322C-0.166323 4.70197 0.996302 3.44797 2.59145 3.41189C3.67664 3.38784 4.76404 3.40751 5.8957 3.40751C5.91893 3.0358 5.93441 2.69578 5.96317 2.35686C6.07269 1.05803 7.11695 0.0390852 8.43887 0.0215925C10.4842 -0.00683307 12.5307 -0.00792636 14.5761 0.0226858C15.9135 0.0434583 16.9733 1.10832 17.0452 2.42355C17.0618 2.72858 17.0474 3.0347 17.0474 3.40642C18.1967 3.40642 19.2786 3.39549 20.3594 3.4097C21.5806 3.42501 22.5585 4.12034 22.8848 5.17427C23.2576 6.38127 22.7045 7.66042 21.5275 8.17864C21.1912 8.32623 21.1204 8.49678 21.1204 8.82477C21.1293 13.9807 21.1249 19.1356 21.1282 24.2916C21.1293 25.2722 20.8848 26.1655 20.2089 26.9078C19.5452 27.6381 18.71 28 17.7144 28C13.6226 27.9989 9.53069 28 5.43773 27.9989C3.36469 27.9978 1.88791 26.5558 1.88459 24.4982C1.87574 19.6527 1.88127 14.8062 1.88127 9.9607C1.88348 9.43264 1.88348 8.90567 1.88348 8.36231ZM3.2585 8.44212C3.23527 8.52958 3.21867 8.56347 3.21867 8.59846C3.21646 13.9162 3.20429 19.2329 3.2231 24.5507C3.22752 25.8681 4.14125 26.6859 5.49525 26.687C9.49308 26.6891 13.492 26.6891 17.4899 26.6859C17.7277 26.6859 17.9733 26.6804 18.2023 26.6257C19.2255 26.3808 19.7952 25.527 19.7963 24.2402C19.7996 19.1411 19.7974 14.042 19.7963 8.94394C19.7963 8.78541 19.7775 8.62689 19.7664 8.44431C14.2487 8.44212 8.7652 8.44212 3.2585 8.44212ZM11.4599 7.09846C14.3515 7.09846 17.2443 7.09956 20.1359 7.09737C21.0939 7.09628 21.6735 6.63491 21.6603 5.89475C21.6481 5.16553 21.0884 4.72712 20.1613 4.72384C19.1669 4.72056 18.1724 4.72274 17.1768 4.72274C12.3692 4.72274 7.56164 4.72056 2.75296 4.72493C1.89012 4.72602 1.32927 5.21363 1.34033 5.92427C1.35139 6.6207 1.89122 7.07879 2.72752 7.09737C2.85694 7.10065 2.98526 7.09846 3.11469 7.09846C5.8968 7.09846 8.67891 7.09846 11.4599 7.09846ZM15.7067 3.38018C15.7155 3.20854 15.7266 3.0839 15.7288 2.95817C15.7421 1.74353 15.3184 1.3237 14.0794 1.32261C12.294 1.32261 10.5086 1.29746 8.72427 1.34229C8.34041 1.35213 7.88798 1.52815 7.59815 1.77742C7.11916 2.1885 7.26739 2.79964 7.30169 3.38018C10.107 3.38018 12.8781 3.38018 15.7067 3.38018Z" fill="#FE9128"/>
<path d="M10.8404 16.9621C10.8404 15.0139 10.8393 13.0656 10.8404 11.1174C10.8404 10.4571 11.034 10.1794 11.4865 10.1717C11.9632 10.163 12.169 10.4516 12.169 11.1425C12.1701 15.039 12.1701 18.9355 12.169 22.8331C12.169 23.523 11.9677 23.8313 11.5152 23.8422C11.0484 23.8531 10.8393 23.535 10.8393 22.808C10.8404 20.8586 10.8404 18.9104 10.8404 16.9621Z" fill="#FE9128"/>
<path d="M6.92779 16.9556C6.92779 15.0631 6.92668 13.1706 6.92889 11.2781C6.92889 11.0791 6.88464 10.8408 6.97535 10.6888C7.10036 10.4822 7.33598 10.2078 7.52514 10.2078C7.7497 10.2067 8.02072 10.4286 8.18444 10.6243C8.29174 10.7522 8.26077 11.007 8.26077 11.2049C8.26409 15.0631 8.26409 18.9213 8.26298 22.7784C8.26298 22.9239 8.26519 23.0714 8.24196 23.2136C8.18001 23.6028 7.96541 23.8608 7.54284 23.8335C7.15456 23.8083 6.9477 23.5536 6.94106 23.1786C6.92557 22.3422 6.92779 21.5048 6.92668 20.6673C6.92668 19.4308 6.92779 18.1932 6.92779 16.9556Z" fill="#FE9128"/>
<path d="M16.0695 16.9917C16.0695 18.9027 16.0695 20.8138 16.0684 22.7249C16.0684 22.9064 16.1226 23.1272 16.0385 23.2617C15.8991 23.4836 15.6812 23.7821 15.4732 23.8007C15.2642 23.8204 14.981 23.5755 14.815 23.3765C14.7077 23.2475 14.7354 22.9949 14.7354 22.797C14.7321 18.9377 14.7321 15.0795 14.7343 11.2202C14.7343 11.0398 14.7398 10.855 14.7796 10.6801C14.8582 10.3335 15.1115 10.0853 15.4489 10.1925C15.689 10.269 15.9235 10.5358 16.0363 10.7752C16.1359 10.9851 16.0673 11.2748 16.0684 11.5296C16.0695 13.3521 16.0695 15.1724 16.0695 16.9917Z" fill="#FE9128"/>
</svg>
